<?xml version="1.0" standalone="no"?>
<!DOCTYPE svg PUBLIC "-//W3C//DTD SVG 20010904//EN"
 "http://www.w3.org/TR/2001/REC-SVG-20010904/DTD/svg10.dtd">
<svg version="1.0" xmlns="http://www.w3.org/2000/svg"
 width="1083.000000pt" height="1083.000000pt" viewBox="0 0 1083.000000 1083.000000"
 preserveAspectRatio="xMidYMid meet">
<metadata>
Created by potrace 1.11, written by Peter Selinger 2001-2013
</metadata>
<g transform="translate(0.000000,1083.000000) scale(0.100000,-0.100000)"
fill="#000000" stroke="none">
<path d="M3665 10581 c-22 -10 -69 -32 -105 -49 -36 -16 -94 -43 -130 -60 -36
-16 -105 -49 -155 -72 -49 -23 -117 -55 -150 -70 -227 -105 -276 -130 -270
-140 3 -5 10 -10 15 -10 4 0 77 -33 162 -74 84 -40 178 -85 208 -99 30 -14
118 -55 195 -92 77 -37 169 -81 204 -97 l64 -29 41 20 c23 10 104 49 181 86
77 37 167 79 200 95 33 15 123 58 200 95 77 37 165 79 195 93 l55 25 -45 21
c-116 53 -599 272 -690 312 -36 15 -80 36 -98 46 -39 21 -28 21 -77 -1z"/>
<path d="M2790 5376 l0 -4705 21 -6 c20 -7 88 -37 254 -115 33 -15 112 -52
175 -80 63 -29 144 -66 180 -82 146 -68 213 -98 215 -98 1 0 1 1091 1 2425 -1
1475 3 2425 8 2425 5 0 596 -292 1313 -649 l1303 -650 0 -214 0 -215 268 -157
c147 -87 281 -166 297 -175 17 -9 66 -38 110 -65 44 -26 92 -53 107 -61 l27
-14 -2 707 -2 708 -545 274 c-1757 881 -2876 1444 -2879 1447 -2 2 -4 814 -4
1805 l0 1801 -141 68 c-220 105 -334 159 -431 205 -49 23 -129 61 -176 84 -48
22 -90 41 -93 41 -3 0 -6 -2117 -6 -4704z"/>
<path d="M4495 10030 c-55 -26 -138 -66 -185 -88 -47 -22 -137 -64 -200 -95
-63 -30 -167 -79 -231 -109 l-116 -55 0 -1716 c0 -1561 2 -1715 16 -1710 9 3
54 24 101 46 47 22 119 55 160 74 41 19 107 50 145 68 39 18 120 56 180 84 61
29 140 66 177 84 l68 32 1 45 c0 25 1 798 2 1718 1 1109 -1 1672 -8 1672 -5 0
-55 -23 -110 -50z"/>
<path d="M4644 6524 c-16 -7 -91 -42 -167 -78 -76 -37 -140 -66 -142 -66 -2 0
-59 -26 -127 -59 -261 -124 -324 -154 -360 -168 -21 -8 -38 -18 -38 -22 0 -5
1340 -681 2405 -1213 121 -61 279 -140 350 -176 72 -36 228 -115 348 -175
l218 -109 407 202 c224 111 418 208 431 217 23 15 13 20 -335 193 -198 97
-629 311 -959 475 -330 164 -807 400 -1060 525 -253 125 -569 282 -701 348
-231 115 -243 119 -270 106z"/>
<path d="M3763 2624 c0 -1278 4 -2324 8 -2324 4 0 74 32 156 71 81 39 180 86
218 104 39 18 155 74 259 124 103 50 189 91 191 91 2 0 114 54 250 120 136 66
249 120 250 120 2 0 72 33 157 74 84 40 212 102 283 136 72 34 171 82 220 105
50 23 153 73 230 110 282 135 372 178 460 220 122 58 324 154 475 227 179 86
423 203 695 333 72 34 198 94 280 134 l150 72 0 1215 c0 668 -1 1214 -2 1214
-10 0 -840 -415 -844 -423 -4 -5 -7 -305 -7 -666 -1 -361 -1 -706 -1 -767 l-1
-110 -112 -54 c-62 -29 -214 -102 -337 -162 -123 -59 -225 -108 -226 -108 -2
0 -106 -50 -232 -111 -125 -61 -255 -124 -288 -139 -33 -15 -136 -65 -230
-110 -93 -45 -210 -102 -260 -125 -90 -43 -244 -117 -495 -238 -320 -154 -390
-187 -394 -187 -2 0 -4 660 -4 1468 -1 807 -1 1472 -1 1479 -1 9 -753 394
-827 423 l-21 8 0 -2324z"/>
<path d="M6084 3271 c-38 -20 -133 -66 -210 -103 -76 -37 -220 -106 -319 -153
-99 -48 -225 -109 -280 -135 -95 -45 -336 -161 -475 -228 l-65 -32 0 -429 0
-429 45 23 c25 13 79 38 120 58 41 19 145 68 230 109 85 42 193 94 240 116 47
22 162 77 255 122 94 45 206 99 250 120 44 21 148 70 230 110 83 40 195 94
250 120 157 75 348 166 499 239 l139 67 -44 26 c-24 14 -60 35 -79 46 -19 10
-123 70 -230 132 -107 62 -253 146 -323 186 -70 41 -135 73 -145 73 -9 -1 -49
-18 -88 -38z"/>
</g>
</svg>
